<?xml version="1.0" encoding="utf-8"?>
<!-- Generator: Adobe Illustrator 23.1.1, SVG Export Plug-In . SVG Version: 6.00 Build 0)  -->
<svg version="1.1" id="Layer_1" xmlns="http://www.w3.org/2000/svg" xmlns:xlink="http://www.w3.org/1999/xlink" x="0px" y="0px"
	 viewBox="0 0 190.4 77.1" style="enable-background:new 0 0 190.4 77.1;" xml:space="preserve">
<style type="text/css">
	.st0{clip-path:url(#SVGID_2_);fill:url(#SVGID_3_);}
	.st1{clip-path:url(#SVGID_5_);fill:url(#SVGID_6_);}
	.st2{clip-path:url(#SVGID_8_);fill:url(#SVGID_9_);}
	.st3{clip-path:url(#SVGID_11_);fill:url(#SVGID_12_);}
	.st4{clip-path:url(#SVGID_14_);fill:url(#SVGID_15_);}
</style>
<g>
	<g>
		<defs>
			<path id="SVGID_1_" d="M66.5,3.4L66.5,3.4c-1.7,0-2.7,0.8-3.7,3.1L52,33.2l0.3,1.4c0,0,8.7,35,9.1,37c0.5,2,1.4,2.9,3.7,3h0.2
				l0,0c1.9-0.3,2.5-1.5,3.4-3.8c0.5-1.4,6.7-16.9,12.7-31.7l0,0C77.7,24.3,74.1,10.2,73.8,9C73.2,5.7,69.8,3.4,66.5,3.4L66.5,3.4"
				/>
		</defs>
		<clipPath id="SVGID_2_">
			<use xlink:href="#SVGID_1_"  style="overflow:visible;"/>
		</clipPath>
		
			<linearGradient id="SVGID_3_" gradientUnits="userSpaceOnUse" x1="-476.9565" y1="143.3484" x2="-476.6679" y2="143.3484" gradientTransform="matrix(-1.2333 -244.8669 -244.8669 1.2333 34580.0273 -116893.9141)">
			<stop  offset="0" style="stop-color:#4FB9E9"/>
			<stop  offset="8.475149e-02" style="stop-color:#4CB5E6"/>
			<stop  offset="0.2003" style="stop-color:#42A9DE"/>
			<stop  offset="0.3334" style="stop-color:#3195D2"/>
			<stop  offset="0.4789" style="stop-color:#147DC2"/>
			<stop  offset="0.4847" style="stop-color:#137CC1"/>
			<stop  offset="0.5109" style="stop-color:#1A73B2"/>
			<stop  offset="0.6147" style="stop-color:#215990"/>
			<stop  offset="0.7172" style="stop-color:#224679"/>
			<stop  offset="0.817" style="stop-color:#21396A"/>
			<stop  offset="0.9127" style="stop-color:#213062"/>
			<stop  offset="1" style="stop-color:#212E5F"/>
		</linearGradient>
		<polygon class="st0" points="81.9,74.5 81.6,3.2 51.7,3.4 52,74.7 		"/>
	</g>
</g>
<g>
	<g>
		<defs>
			<path id="SVGID_4_" d="M127.4,3.1c-1.6,0-2.6,0.8-3.7,3l-10.9,27.2l0.3,1c0,0,8.6,35,9.1,36.9c0.5,2.1,1.5,3,3.8,3h0.1
				c0.1,0,0.2,0,0.3,0h-0.1c1.2-0.3,2.8-2.4,3.7-4.7c0.5-1.4,6.5-16.3,12.3-30.7C138.6,24,135,9.7,134.7,8.6
				C134,5.5,130.7,3.2,127.4,3.1L127.4,3.1z"/>
		</defs>
		<clipPath id="SVGID_5_">
			<use xlink:href="#SVGID_4_"  style="overflow:visible;"/>
		</clipPath>
		
			<linearGradient id="SVGID_6_" gradientUnits="userSpaceOnUse" x1="-477.3185" y1="143.7281" x2="-477.03" y2="143.7281" gradientTransform="matrix(-0.9302 -184.7004 -184.7004 0.9302 26230.4512 -88223.4141)">
			<stop  offset="0" style="stop-color:#D82429"/>
			<stop  offset="0.1565" style="stop-color:#D32428"/>
			<stop  offset="0.3065" style="stop-color:#C62327"/>
			<stop  offset="0.4539" style="stop-color:#B22124"/>
			<stop  offset="0.599" style="stop-color:#961D20"/>
			<stop  offset="0.6135" style="stop-color:#931D1F"/>
			<stop  offset="0.6881" style="stop-color:#8E1C1F"/>
			<stop  offset="0.7961" style="stop-color:#7F1A1E"/>
			<stop  offset="0.9237" style="stop-color:#68161C"/>
			<stop  offset="1" style="stop-color:#59111B"/>
		</linearGradient>
		<polygon class="st1" points="142.8,74.2 142.4,2.9 112.5,3.1 112.9,74.4 		"/>
	</g>
</g>
<g>
	<g>
		<defs>
			<path id="SVGID_7_" d="M165.8,2.9c-5.6,0-10.5,3.8-12.3,8c0,0-5.5,13.8-11.2,28c-5.8,14.4-11.7,29.3-12.3,30.7
				c-0.9,2.3-2.5,4.4-3.7,4.7h0.1l21.7-0.1c5.3,0,9.9-3.2,12.1-7.6l24.3-60.7c1-2.3,2.1-3,3.7-3L165.8,2.9z"/>
		</defs>
		<clipPath id="SVGID_8_">
			<use xlink:href="#SVGID_7_"  style="overflow:visible;"/>
		</clipPath>
		
			<linearGradient id="SVGID_9_" gradientUnits="userSpaceOnUse" x1="-474.1747" y1="145.082" x2="-473.886" y2="145.082" gradientTransform="matrix(1.2184 241.8923 241.8923 -1.2184 -34359.2617 114880.1797)">
			<stop  offset="0" style="stop-color:#D82429"/>
			<stop  offset="0.1565" style="stop-color:#D32428"/>
			<stop  offset="0.3065" style="stop-color:#C62327"/>
			<stop  offset="0.4539" style="stop-color:#B22124"/>
			<stop  offset="0.599" style="stop-color:#961D20"/>
			<stop  offset="0.6135" style="stop-color:#931D1F"/>
			<stop  offset="0.6881" style="stop-color:#8E1C1F"/>
			<stop  offset="0.7961" style="stop-color:#7F1A1E"/>
			<stop  offset="0.9237" style="stop-color:#68161C"/>
			<stop  offset="1" style="stop-color:#59111B"/>
		</linearGradient>
		<polygon class="st2" points="126.1,2.8 126.4,74.5 188.7,74.2 188.4,2.4 		"/>
	</g>
</g>
<g>
	<g>
		<defs>
			<path id="SVGID_10_" d="M121.1,3.1l-15.7,0.1h-0.2h-0.4c-5.5,0.1-10.3,3.8-12.1,8c0,0-5.4,13.6-11.1,27.8
				c-5.9,14.8-12.1,30.4-12.7,31.7c-0.9,2.3-1.5,3.5-3.4,3.8c0,0,0,0-0.1,0l22.1-0.1c5.3,0,9.9-3.2,12.1-7.6L113,33.3l10.9-27.2
				c1-2.2,2-3,3.7-3L121.1,3.1z"/>
		</defs>
		<clipPath id="SVGID_11_">
			<use xlink:href="#SVGID_10_"  style="overflow:visible;"/>
		</clipPath>
		
			<linearGradient id="SVGID_12_" gradientUnits="userSpaceOnUse" x1="-474.175" y1="145.7023" x2="-473.8864" y2="145.7023" gradientTransform="matrix(1.2184 241.8923 241.8923 -1.2184 -34570.2617 114881.3047)">
			<stop  offset="0" style="stop-color:#4FB9E9"/>
			<stop  offset="8.475149e-02" style="stop-color:#4CB5E6"/>
			<stop  offset="0.2003" style="stop-color:#42A9DE"/>
			<stop  offset="0.3334" style="stop-color:#3195D2"/>
			<stop  offset="0.4789" style="stop-color:#147DC2"/>
			<stop  offset="0.4847" style="stop-color:#137CC1"/>
			<stop  offset="0.5109" style="stop-color:#1A73B2"/>
			<stop  offset="0.6147" style="stop-color:#215990"/>
			<stop  offset="0.7172" style="stop-color:#224679"/>
			<stop  offset="0.817" style="stop-color:#21396A"/>
			<stop  offset="0.9127" style="stop-color:#213062"/>
			<stop  offset="1" style="stop-color:#212E5F"/>
		</linearGradient>
		<polygon class="st3" points="65,3.1 65.4,74.9 127.9,74.6 127.5,2.7 		"/>
	</g>
</g>
<g>
	<g>
		<defs>
			<path id="SVGID_13_" d="M66.5,3.4L43.9,3.5c-5.5,0.1-10.4,3.8-12.2,8c0,0-22.8,56.9-23.8,59.6c-0.9,2.3-1.6,3.5-3.5,3.8l22-0.1
				c5.3,0,9.9-3.2,12.1-7.6l13.5-34L62.7,6.4C63.8,4.1,64.8,3.4,66.5,3.4z"/>
		</defs>
		<clipPath id="SVGID_14_">
			<use xlink:href="#SVGID_13_"  style="overflow:visible;"/>
		</clipPath>
		
			<linearGradient id="SVGID_15_" gradientUnits="userSpaceOnUse" x1="-474.1751" y1="146.3248" x2="-473.8865" y2="146.3248" gradientTransform="matrix(1.2184 241.8923 241.8923 -1.2184 -34781.8867 114882.4297)">
			<stop  offset="0" style="stop-color:#4FB9E9"/>
			<stop  offset="8.475149e-02" style="stop-color:#4CB5E6"/>
			<stop  offset="0.2003" style="stop-color:#42A9DE"/>
			<stop  offset="0.3334" style="stop-color:#3195D2"/>
			<stop  offset="0.4789" style="stop-color:#147DC2"/>
			<stop  offset="0.4847" style="stop-color:#137CC1"/>
			<stop  offset="0.5109" style="stop-color:#1A73B2"/>
			<stop  offset="0.6147" style="stop-color:#215990"/>
			<stop  offset="0.7172" style="stop-color:#224679"/>
			<stop  offset="0.817" style="stop-color:#21396A"/>
			<stop  offset="0.9127" style="stop-color:#213062"/>
			<stop  offset="1" style="stop-color:#212E5F"/>
		</linearGradient>
		<polygon class="st4" points="4,3.4 4.3,75.2 66.8,74.9 66.5,3.1 		"/>
	</g>
</g>
</svg>
