<svg width="60" height="60" viewBox="0 0 60 60" fill="none" xmlns="http://www.w3.org/2000/svg">
<circle cx="30" cy="30" r="29" stroke="black" stroke-width="2"/>
<path d="M27.0974 35.5192C27.8988 36.3381 28.8658 36.8437 29.7787 36.9452C30.7138 37.0322 31.7013 36.7312 32.7931 35.543C33.1315 35.1748 33.5022 34.7484 34.1257 34.5448C34.7492 34.3411 35.4984 34.4675 36.2951 34.8854C37.815 36.0108 39.3825 37.1505 40.8777 38.3078C41.5905 39.0027 41.774 39.918 41.544 40.6369C41.314 41.3557 40.8213 41.9001 40.3658 42.3559C37.8266 44.9357 34.8189 46.1823 31.8669 45.7465C29.0154 45.2652 26.256 43.3179 23.1974 40.3358C21.8827 39.0539 20.8584 38.0553 19.5573 36.7867C16.4986 33.8045 14.5014 31.1141 14.0078 28.3338C13.4208 24.8954 15.2943 22.0966 17.4853 20.0474C17.9528 19.6034 18.5112 19.1229 19.2485 18.8987C19.9857 18.6745 20.9245 18.8534 21.6373 19.5483C22.8242 21.0061 23.9931 22.5344 25.1473 24.0164C25.576 24.7931 25.7056 25.5236 25.4967 26.1316C25.2878 26.7395 24.8506 27.1009 24.4729 27.4308C23.2542 28.4953 22.9455 29.4582 23.0348 30.3699C23.1389 31.26 23.6573 32.2029 24.4973 32.9841L27.0974 35.5192Z" fill="black"/>
<path d="M28.6011 15.7563C28.6221 16.1317 28.9917 16.4546 29.3768 16.4341C37.9147 16.4341 44.8204 23.167 44.8204 31.4916C44.8149 31.8704 45.1672 32.2188 45.5558 32.2188C45.9443 32.2188 46.2967 31.8704 46.2912 31.4916C46.2912 22.392 38.7096 15 29.3768 15C28.9363 14.9964 28.5937 15.3854 28.6011 15.7563ZM28.6011 20.0584C28.6221 20.4339 28.9917 20.7568 29.3768 20.7362C35.4778 20.7362 40.4079 25.543 40.4079 31.4916C40.4024 31.8704 40.7548 32.2188 41.1433 32.2188C41.5319 32.2188 41.8842 31.8704 41.8787 31.4916C41.8787 24.768 36.2727 19.3022 29.3768 19.3022C28.9175 19.3057 28.5937 19.7127 28.6011 20.0584Z" fill="black"/>
</svg>
