<svg width="60" height="60" viewBox="0 0 60 60" fill="none" xmlns="http://www.w3.org/2000/svg">
<circle cx="30" cy="30" r="29" stroke="black" stroke-width="2"/>
<path d="M24.32 21.31V24.43H24.38C26.57 22.24 28.28 21.22 30.35 21.22C32.12 21.22 33.35 22.21 33.35 23.65C33.35 25.03 32.54 25.75 30.47 26.89C28.31 28.03 27.32 28.75 27.32 30.16C27.32 31.24 27.8 31.93 28.88 33.25H30.53C29.96 32.23 29.72 31.63 29.72 31C29.72 30.25 30.23 29.8 32.3 28.63C34.52 27.43 36.02 26.26 36.02 23.68C36.02 20.56 33.71 18.7 30.5 18.7C27.89 18.7 25.91 19.81 24.32 21.31ZM27.44 38.23C27.44 39.34 28.34 40.27 29.48 40.27C30.59 40.27 31.49 39.34 31.49 38.23C31.49 37.12 30.59 36.19 29.48 36.19C28.34 36.19 27.44 37.12 27.44 38.23Z" fill="black"/>
</svg>
