<svg width="26" height="14" viewBox="0 0 26 14" fill="none" xmlns="http://www.w3.org/2000/svg">
<path d="M24.9999 2.57492e-05C24.8685 -0.000123024 24.7384 0.0256863 24.6171 0.0759687C24.4957 0.126251 24.3855 0.200016 24.2927 0.293025L12.9968 11.586L1.70092 0.293025C1.51279 0.108315 1.2593 0.00535488 0.995617 0.00654888C0.731934 0.00774288 0.47939 0.112995 0.292936 0.299401C0.106482 0.485807 0.00120439 0.738285 1.02696e-05 1.0019C-0.00118385 1.26552 0.101802 1.51894 0.28656 1.70703L12.2896 13.707C12.3825 13.7999 12.4927 13.8736 12.6141 13.9239C12.7354 13.9741 12.8655 14 12.9968 14C13.1282 14 13.2583 13.9741 13.3796 13.9239C13.501 13.8736 13.6112 13.7999 13.7041 13.707L25.7071 1.70703C25.847 1.56717 25.9422 1.389 25.9808 1.19504C26.0194 1.00108 25.9996 0.800045 25.9239 0.617343C25.8482 0.434641 25.72 0.278479 25.5555 0.168599C25.3911 0.0587196 25.1977 5.62668e-05 24.9999 2.57492e-05Z" fill="black"/>
</svg>
